<svg xmlns="http://www.w3.org/2000/svg" viewBox="0 0 304.49 405.09"><defs><style>.cls-1{fill:#fff;}</style></defs><g id="Layer_2" data-name="Layer 2"><g id="trace"><path class="cls-1" d="M138.94,201.16h11.64c3.38,0,8.4.86,11.39-1.16,3.18-2.14,3.7-7.29,4.27-10.79a35.6,35.6,0,0,0-3.17-20.49c-3-6.72-7.57-12.62-11.73-18.66-3.62-5.28-9.64-12.14-8.12-18.95s5.33-.13,3.44,3c-.92,1.54-2.48,2.66-4.11,1.77-2.2-1.19-2.84-5.47-3.22-7.59a30.75,30.75,0,0,1,.56-14.43c2-6.28,8.65-9.76,14.67-6.15,2.77,1.66,4.05,4.32,4.84,7.33.38,1.48,1.91,7.24.2,8.39s-2.29-2-2.56-3.07c-.15-.6-.31-2.41-.17-1.18a37.43,37.43,0,0,1-.26-4.49c0-4.27.83-9,3.81-12.28,4-4.41,11.77-4.81,16.79-2,5.8,3.22,8.06,8.59,7.41,14.89-.53,5.11-6,12.2-10.73,6.11a13.18,13.18,0,0,1-1.62-13c2-5.22,7.74-10.75,13.48-11.32,8.3-.82,14.76,6.53,17.4,13.57,5.4,14.42-3.91,29.4-12,41.94-7.53,11.74-10.3,26.68-10.13,40.51.07,5.88,3.43,8,8.86,8.23,2,.09,4.62.7,6.54.29,1.11-.24,1.5-.43,0-.33a37.1,37.1,0,0,0-4.1.9c-12.56,2.26-25.81,1.69-38.5,1.16-4.21-.18-8.41-.54-12.62-.73-3.81-.16-5.43,1.64-5.47,5.64-.05,6.06,2.64,8.62,8.35,9.44,5.52.78,11.07,1.28,16.64,1.54a202.31,202.31,0,0,0,25.35-.46,124.13,124.13,0,0,0,13.75-1.56c2.12-.41,4.27-1.25.89-.1a53,53,0,0,1-5.24,1.49c-13.29,3.13-27.49,2.6-41,1.39-5.63-.5-17.11-4.64-18.25,3.82-1.39,10.18,7.83,10.28,15,11,12.41,1.24,25.05,2,37.49,1,2.7-.24,5.41-.57,8.07-1.06,2-.35,5.37-2.11,7.14-2l-2.48-1c-1.42-1.81-.34,0-1.17,1.58a3.28,3.28,0,0,1-2.27,1.87,21.38,21.38,0,0,1-5.78.9,190.2,190.2,0,0,1-19.54.64c-6.68-.07-13.36-.33-20-.95-4.73-.44-11-.06-10.81,6.39s8.62,7.72,13.59,8.45c12.76,1.88,25.87,1.39,38.7.78l-2.47-1c-.28-.31-3.08.88-3.67,1a43.42,43.42,0,0,1-8.57,1.16,108.77,108.77,0,0,1-12.51-.17c-4.31-.28-9.9-2-12.91,2.15s-.31,8.55,3.41,10.73c4.21,2.47,9.54,3,14.3,3.29,9.42.6,18.62-1.12,28-1.22,8.65-.09,18,2.66,25.78,6.18,9.9,4.47,15.82,12.39,20.45,22,5.37,11.15,10.52,22.4,15.63,33.67,11.38,25.05,22.72,50.15,36.43,74l3-5.27q-105.34,0-210.69.15l3,5.26a145.49,145.49,0,0,0,21.55-64c.52-5.52,1-10.56-1.54-15.68a25.53,25.53,0,0,0-10.28-11.05c-5-2.63-10.84-2.69-16.31-3.19-5-.46-10-.84-15-1.28-11.3-1-23.81-2.15-32-11-6.8-7.35-3.57-17.7-2.56-26.55.44-3.84.61-7.86-.61-11.58a14.55,14.55,0,0,0-2.81-5c-1.48-1.71-4.45-2.84-3.92-5.53.69-3.51,4.9-5.82,1.64-9.63-1.29-1.51-2.95-1.43-4.53-2.23-1.26-.63-1.64-.57-2.2-2.22-.77-2.3-.62.18.06-1.22,2.8-5.82,9.76-17.19,2.37-22.57-5.76-4.18-17-.15-19.55-9-1.76-6,3.79-12.09,6.87-16.81,3.64-5.6,7.39-11.13,10.79-16.88a117.22,117.22,0,0,0,7.53-14.77c2.06-4.92,4.86-10.8,3.61-16.19-.95-4.09-2.46-7.69-2.72-11.93-.3-4.79.84-9.29,1.77-14,2.77-13.94,5.24-27.3,11.31-40.31C51,61.63,55.89,51.45,63.19,44.25A135.64,135.64,0,0,1,88.9,24.46c22.38-13.15,50.13-17,75.69-17.34,27.67-.36,54.68,2.47,79.47,15.48,22.46,11.78,37.64,35.63,44.85,59.45,3.83,12.63,5.23,26.85,4.95,40a76.38,76.38,0,0,1-7,31.05A67.73,67.73,0,0,1,252.58,186a66.77,66.77,0,0,1-10.33,3.49c-7.47,1.9-20.81,4.08-26.4-3.36-3.91-5.2-.2-15.66,1.84-21.12,4-10.7,10.76-20,14.15-31,7.28-23.68,3.83-50.7-12-70.23-15-18.56-37.06-25.11-60.27-23.75-18.48,1.09-36.08,9.69-47.34,24.56-8.49,11.21-13.21,25.55-14,39.56-1.45,24.69,8.82,47.22,24.13,66,6.54,8,12.11,16.88,13.06,27.53.39,4.45,7.4,4.49,7,0a52.84,52.84,0,0,0-10.71-27c-9.14-11.73-17.88-22.8-22.56-37.16a75.11,75.11,0,0,1-1.06-44.8c6.24-21.14,22.54-36.83,44.42-40.91,23.54-4.38,48.62,2.6,63.32,22.08,17.17,22.77,15.42,53.49,2.56,77.7-6.14,11.56-19.21,35.63-4.62,45.9,11,7.73,26.13,4.88,38,.37A75.89,75.89,0,0,0,287,166.71c12.93-18.4,15.33-40.92,12.86-62.74-1.45-12.81-4-24.84-9.13-36.7a122.37,122.37,0,0,0-19.3-31.51c-16.54-19.28-42.16-30.15-67-33.42-26.66-3.5-54.37-3.3-80.75,2.13C111.43,7,99.29,10.84,88.24,16.8,78.69,22,69.81,29.15,61.61,36.23,53.82,43,48.39,51.86,43.8,61,37.68,73.09,32.91,85.7,30.47,99.09c-1.75,9.64-4.75,19.66-3.4,29.51.55,4,3.07,8.52,2.48,12.48-1,6.57-4.68,13.26-7.85,19-2.94,5.34-6.26,10.46-9.59,15.56-3.65,5.58-8.35,11.32-11,17.47-3.58,8.47,1.63,17.39,9.56,20.52,3.46,1.37,7.22,1.06,10.6,2.19,2.58.86,2.08,2.15,1.48,4.76a26.09,26.09,0,0,1-3.34,8.12c-1.67,2.57-2.68,4.17-1.59,7.4A12.85,12.85,0,0,0,21.5,242a5.94,5.94,0,0,0,1.55.9,7.43,7.43,0,0,0,2,.58c1.46.63,1.57.25.32-1.16-2.95,2.07-3.12,7.73-2.15,10.79,1.35,4.24,6.19,5.05,7.06,9.77,1.62,8.81-2.7,17.88-1.51,26.83,3.05,22.95,31.89,24.63,49.77,26.11,5.72.47,11.85.47,17.43,1.75,6.62,1.51,12.25,8,12.46,14.86.37,11.9-2.72,25.1-6.31,36.38-3.5,11-8.77,21.25-14.84,31.06a3.54,3.54,0,0,0,3,5.27q105.35,0,210.69-.15a3.53,3.53,0,0,0,3-5.27c-15.9-27.71-28.59-57.05-41.91-86.06-6.07-13.24-11.18-28.73-22.09-38.87-8.1-7.54-19.57-11.35-30.27-13.33-11.74-2.18-23.42.61-35.25.27a40.25,40.25,0,0,1-11.25-1.49,13.44,13.44,0,0,1-2.5-1.07,9.54,9.54,0,0,0-1-.55c2.52-.21,6.61.81,9.55.95s6,.2,8.94.09a54.49,54.49,0,0,0,11.59-1.46,16.39,16.39,0,0,0,6.15-2.64c3.13-2.52,3.79-9-.52-10.81-2.85-1.2-7.45,0-10.56.06q-5.05.13-10.13.11c-4.93,0-9.87-.19-14.78-.69a52.39,52.39,0,0,1-8.08-1.34c-.83-.22-1.7-.64-2.54-.79.53.1-1.36,0-.54.33,2.41.87,6,.61,8.57.78q4.68.32,9.37.45c6.12.19,12.25.2,18.36-.06,7.1-.3,17.7.33,21.35-7.17,1.32-2.72,2.41-7.72-.48-9.86-2.71-2-7.65.86-10.6,1.42-10,1.93-20.65,1.55-30.82,1q-6.71-.37-13.4-1.05c-2.15-.22-5.82.07-7.8-.89-.71-.34.54.43-.27-1.28-.66-1.4,1.43-.56-1.41-.66-9.72-.36-1.37.22-1.31.3s.62.06.77.12c2.26.95,5.71.8,8.12,1.07A188.82,188.82,0,0,0,179,227.75a104,104,0,0,0,16.51-1.92c4-.83,10.78-1.82,13.3-5.45a6.91,6.91,0,0,0-3.51-10.23c-3.09-1-7.07.38-10.16.76q-5.81.74-11.66,1.12a191.68,191.68,0,0,1-34.38-.64,21.15,21.15,0,0,1-4.78-.62c-.85-.32-1,0-1.44-.67s-.13-2.93,0-3.75l-1,2.48.24-.3-2.48,1c18.27,1.52,38,2.89,56.05-.83,4.51-.93,9.64-3,8.47-8.69-.91-4.45-4.87-5.24-8.71-5.41-2-.08-4.31.16-6.22-.27-1.52-.35-.8.13-1.1-.41-.4-.72,0-2.73.07-3.52a88.82,88.82,0,0,1,2.72-19.53c4.26-16.09,17.31-28,20.35-44.7,1.79-9.89-.55-20.28-7.37-27.94-9.07-10.18-22.66-10.2-32.29-1a22,22,0,0,0-5.14,25.12c4.24,9.22,16.66,11.44,22.47,2.19,5.45-8.68,3.2-20.65-4.2-27.29-7.92-7.1-21.56-7.75-29.2.25-5.3,5.54-6.42,14.09-5.64,21.42.4,3.81,1.14,8.18,4.56,10.48A8.11,8.11,0,0,0,166,126.26c4.51-9.1-1.85-22.85-11.08-26-11.9-4.07-21.22,5.12-22.79,16.41-1.09,7.88-.32,26.49,11.37,26.61,10.91.11,14.83-16.22,5.29-21.35-4.6-2.48-9.49-.16-11.43,4.41-2.32,5.45-1.7,10.57.85,15.68,6.22,12.45,18.14,22.9,20.94,36.89a25.78,25.78,0,0,1,.17,9.43c-.24,1.36-.42,4.29-1.25,5.34-.45.56-.51.48-2,.48H138.94c-4.51,0-4.52,7,0,7Z"/></g></g></svg>